<?xml version="1.0" encoding="utf-8"?>
<!-- Generator: Adobe Illustrator 19.1.0, SVG Export Plug-In . SVG Version: 6.00 Build 0)  -->
<!DOCTYPE svg PUBLIC "-//W3C//DTD SVG 1.1//EN" "http://www.w3.org/Graphics/SVG/1.1/DTD/svg11.dtd">
<svg version="1.1" id="Layer_1" xmlns="http://www.w3.org/2000/svg" xmlns:xlink="http://www.w3.org/1999/xlink" x="0px" y="0px"
	 viewBox="0 0 573 418.6" enable-background="new 0 0 573 418.6" xml:space="preserve">
<g>
	<path fill="#182D42" d="M168.9,213c59.8,49.8,124.8,107.7,169.3,128.8c6.9,3.3,13.1,6.3,18.7,9.2c32-67.5-10-161.5-98.2-215.3
		C168.4,80.6,63,88.1,19.3,151.3C55.6,158.8,125.9,177.2,168.9,213z"/>
	<path fill="#182D42" d="M335.7,352c0,0-104.2-42.3-158-92.2C130.8,216.3,56.1,175,12,163.6c-34.4,67.7,7.4,163.5,96.9,218
		c92.7,56.4,201.4,47.1,242.7-20.8c0.5-0.8,0.9-1.5,1.3-2.3L335.7,352z"/>
</g>
<g>
	<path fill="#182D42" d="M502.7,281.9c-30.6,36.8-66.2,76.8-79.2,104.2c-2,4.2-3.9,8.1-5.7,11.5c41.5,19.7,99.4-6.1,132.5-60.5
		c33.8-55.6,29.3-120.5-9.6-147.3C536,212.2,524.7,255.5,502.7,281.9z"/>
	<path fill="#182D42" d="M417.1,384.5c0,0,26.1-64.2,56.8-97.2c26.8-28.9,52.2-74.8,59.2-102c-41.7-21.2-100.6,4.6-134.2,59.6
		c-34.7,57-29,123.9,12.8,149.4c0.5,0.3,0.9,0.5,1.4,0.8L417.1,384.5z"/>
</g>
<g>
	<path fill="#182D42" d="M432.2,70.5c-36.9,30.7-77,66.5-104.5,79.5c-4.2,2-8.1,3.9-11.6,5.7C296.4,114,322.3,56,376.8,22.8
		c55.7-33.9,120.8-29.4,147.8,9.7C502.2,37.1,458.7,48.4,432.2,70.5z"/>
	<path fill="#182D42" d="M329.3,156.4c0,0,64.4-26.1,97.5-56.9c28.9-26.9,75-52.3,102.3-59.4c21.2,41.8-4.6,100.9-59.8,134.6
		c-57.2,34.8-124.3,29.1-149.8-12.8c-0.3-0.5-0.6-0.9-0.8-1.4L329.3,156.4z"/>
</g>
</svg>
