<svg xmlns="http://www.w3.org/2000/svg" viewBox="-157 158.8 403.8 404.2">
  <path fill="#182D42" d="M176.5 440.7c-30.6 36.8-66.2 76.8-79.2 104.2-2 4.2-3.9 8.1-5.7 11.5 41.5 19.7 99.4-6.1 132.5-60.5 33.8-55.6 29.3-120.5-9.6-147.3-4.7 22.4-16 65.7-38 92.1zM-86.7 410.7c-22-26.4-33.3-69.7-38-92.1-38.9 26.8-43.4 91.7-9.6 147.3 33.1 54.4 91 80.2 132.5 60.5-1.8-3.4-3.7-7.3-5.7-11.5-13-27.4-48.6-67.4-79.2-104.2zM3.1 315.2s64.4-26.1 97.5-56.9c28.9-26.9 75-52.3 102.3-59.4 21.2 41.8-4.6 100.9-59.8 134.6-57.2 34.8-124.3 29.1-149.8-12.8-.3-.5-.6-.9-.8-1.4l10.6-4.1z"/>
  <path fill="#182D42" d="M50.6 181.6c-54.5 33.2-80.4 91.2-60.7 132.9 3.5-1.8 7.4-3.7 11.6-5.7C29 295.8 69.1 260 106 229.3c26.5-22.1 70-33.4 92.4-38-27-39.1-92.1-43.6-147.8-9.7zm-34.3 68.9c-4.3-2.5-5.5-19.1-5.5-19.1l46.2 8.4s-31.6 15.9-40.7 10.7zm68.6-30l8.4-46.2s15.2 6.9 16 11.9c1.6 10.3-24.4 34.3-24.4 34.3zM17.1 373.7c-33.6-55-92.5-80.8-134.2-59.6 7 27.2 32.4 73.1 59.2 102 30.7 33 56.8 97.2 56.8 97.2l4 10.6c.5-.3.9-.5 1.4-.8 41.8-25.5 47.5-92.4 12.8-149.4zm-60.4 9.9s-17.4-30.8-12.6-40.2c2.3-4.4 18.9-6.3 18.9-6.3l-6.3 46.5zm56 49.7c-10.3 2.1-35.5-22.8-35.5-22.8l46.6 6.3s-6.2 15.5-11.1 16.5z"/>
  <path fill="#182D42" d="M72.7 403.7c-34.7 57-29 123.9 12.8 149.4.5.3.9.5 1.4.8l4-10.6s26.1-64.2 56.8-97.2c26.8-28.9 52.2-74.8 59.2-102-41.7-21.2-100.6 4.6-134.2 59.6zm14.4 59.6c-4.8-1.2-10.4-17-10.4-17l46.8-4.4c0 .1-26.2 24-36.4 21.4zm58-47.4l-4.4-46.8s16.5 2.6 18.6 7.1c4.4 9.6-14.2 39.7-14.2 39.7z"/>
</svg>
