<svg xmlns="http://www.w3.org/2000/svg" viewBox="-155 156.5 408.2 408.5">
  <g fill="#182D42">
    <path d="M140.7 407.8c-16.6 0-31.5-6.8-42.3-17.7-14.5 8.5-31.4 13.4-49.4 13.4s-35-4.9-49.4-13.4c-10.8 10.9-25.7 17.7-42.3 17.7-5.1 0-10.1-.6-14.9-1.9L-35.1 559h168.2l22.6-153.2c-4.8 1.2-9.8 2-15 2zM-5.6 529.5c0 4.8-4 8.8-8.8 8.8s-8.8-4-8.8-8.8V428.6c0-4.8 4-8.8 8.8-8.8s8.8 4 8.8 8.8v100.9zm63.3 0c0 4.8-4 8.8-8.8 8.8s-8.8-4-8.8-8.8V428.6c0-4.8 4-8.8 8.8-8.8s8.8 4 8.8 8.8v100.9zm63.3 0c0 4.8-4 8.8-8.8 8.8s-8.8-4-8.8-8.8V428.6c0-4.8 4-8.8 8.8-8.8s8.8 4 8.8 8.8v100.9z"/>
    <path d="M145.2 279.8c-8-45.9-48.1-80.8-96.3-80.8s-88.2 34.8-96.2 80.8c-30.8 2.3-55.1 28-55.1 59.4 0 32.9 26.6 59.7 59.7 59.7 16.6 0 31.5-6.8 42.3-17.7 14.5 8.5 31.4 13.4 49.4 13.4s35-4.8 49.4-13.4c10.8 10.9 25.8 17.7 42.3 17.7 32.9 0 59.7-26.6 59.7-59.7-.1-31.3-24.3-57-55.2-59.4z"/>
  </g>
  <path fill="#182D42" d="M-69.5 271.7c5.5-2.6 12.6-3.8 19.9-3.8 4.9-19 15.4-35.7 29.6-48.3-18.5-32-45.9-52.8-80.3-57.9-19.2-2.8-39.2-.8-54.7 7.7 35.4 5.4 45 27.6 39.1 49.9 27.9-8.4 55.3 19.6 46.4 52.4zM253.2 169.4c-15.5-8.5-35.5-10.6-54.7-7.7-34.6 5.2-62.1 26-80.5 58.1 14.1 12.6 24.5 29.2 29.5 48 7.4-.1 14.8 1.1 20.2 3.8-9-32.7 18.5-60.8 46.4-52.4-5.9-22.2 3.8-44.4 39.1-49.8z"/>
</svg>
