<svg xmlns="http://www.w3.org/2000/svg" viewBox="-167 169.1 384 383.9">
  <g fill="#182D42">
    <path d="M-90.3 234.6c3.9-2.4 7.3-5.8 10.4-9.1 4-4.2 5.3-4.8 8.9-.2 4.1 5.2 7.9 10.8 10.4 16.9 8.4 19.7 13 59.6 15.4 81.6h88.5c1.1-17.7 3.3-47.4 8.6-60.7 2.9-7.3 6.5-14.2 12.7-19.6 2.4 2.1 4.5 4.2 6.9 6 2.5 1.9 5 3.9 7.8 5.4 9.7 5.3 16.2 1.8 16.3-9.3.1-12.8-4.1-24.3-12.8-33.7-6.2-6.7-13.6-8.5-21.8-4.3-5.8 3-11 7.4-16 11.6-3.2 2.7-5.7 6.1-8.8 9.5-1.2-5.6-1.9-10.7-3.4-15.6-4.9-15.7-12.1-30.1-26.9-39-9.9-6-19.6-4.8-27.8 3.4-2.7 2.7-5.5 5.6-7.1 9-4.6 9.4-8.7 19-13 28.5-.4.9-.8 1.8-1.5 3.1-1.7-3.6-2.8-6.9-4.7-9.5-5.4-7.5-10.4-15.6-17-21.9-8.3-8-18.2-7.5-27.3-.5-8.1 6.3-14.1 14.2-17.3 24-2.4 7.5-2.1 14.8 3 21.3 4.7 5.4 10.5 6.9 16.5 3.1zm93.6-29.4c2.6-.1 4.8 3.6 4.7 6.7 0 2.9-2.1 5.9-4.2 5.7-2.6-.2-3.1-4.5-3.4-6.9-.1-1.7.8-5.4 2.9-5.5zM-4 225c4.4-.1 8.1 5.1 8.4 11.8.3 7.1-3.2 13.1-7.8 13.2-4.5.1-8.5-5.9-8.5-12.8 0-6.6 3.5-12.1 7.9-12.2zm-7-18.9c2.6.2 3 4.6 3.2 7 .1 1.7-1 5.3-3.1 5.3-2.5 0-4.5-3.7-4.3-6.7.1-2.8 2.1-5.8 4.2-5.6zM152.1 362.5c.6-5.4.9-10 .9-13.8 0-19.6-3.3-19.7-16-19.7h-288c-12.7 0-16 .1-16 19.7 0 19.6 7.7 61.3 28.3 111s44.4 71.6 61.2 86.2l.1-.2c5.1 4.6 11.8 7.3 19.2 7.3H44.2c7.4 0 14.1-2.7 19.2-7.3l.1.2c9-7.8 20-17.8 31.4-32.9 4.7 2 9.8 3.7 15.4 5 8.4 2 16.8 3 24.8 3 24 0 45.6-9.2 60.8-25.8 13.4-14.6 21.1-34.4 21.1-54.2 0-38.9-28-71.4-64.9-78.5zm-17 126.8c-8.6 0-15.6-1.2-22.1-4.2 4-8 7.9-15.9 11.7-25.1 10.1-24.4 17.1-47 21.6-65.8 22 4.3 38.7 23.8 38.7 47.1 0 22.7-17.2 48-49.9 48z"/>
  </g>
</svg>
